<svg xmlns="http://www.w3.org/2000/svg" id="Layer_1" data-name="Layer 1" viewBox="0 0 232 500"><defs><style>.cls-1{fill:#e9ebec}</style></defs><title>table-skeleton</title><polygon points="21 18.19 21 6.06 10.5 0 0 6.06 0 18.19 10.5 24.25 21 18.19" class="cls-1"/><rect width="176" height="8" x="56" y="8" class="cls-1"/><rect width="55" height="8" x="56" y="28" class="cls-1"/><polygon points="21 83.19 21 71.06 10.5 65 0 71.06 0 83.19 10.5 89.25 21 83.19" class="cls-1"/><rect width="176" height="8" x="56" y="73" class="cls-1"/><rect width="55" height="8" x="56" y="93" class="cls-1"/><polygon points="21 147.19 21 135.06 10.5 129 0 135.06 0 147.19 10.5 153.25 21 147.19" class="cls-1"/><rect width="176" height="8" x="56" y="137" class="cls-1"/><rect width="55" height="8" x="56" y="157" class="cls-1"/><polygon points="21 212.19 21 200.06 10.5 194 0 200.06 0 212.19 10.5 218.25 21 212.19" class="cls-1"/><rect width="176" height="8" x="56" y="202" class="cls-1"/><rect width="55" height="8" x="56" y="222" class="cls-1"/><polygon points="21 287.19 21 275.06 10.5 269 0 275.06 0 287.19 10.5 293.25 21 287.19" class="cls-1"/><rect width="176" height="8" x="56" y="277" class="cls-1"/><rect width="55" height="8" x="56" y="297" class="cls-1"/><polygon points="21 352.19 21 340.06 10.5 334 0 340.06 0 352.19 10.5 358.25 21 352.19" class="cls-1"/><rect width="176" height="8" x="56" y="342" class="cls-1"/><rect width="55" height="8" x="56" y="362" class="cls-1"/><polygon points="21 482.19 21 470.06 10.5 464 0 470.06 0 482.19 10.5 488.25 21 482.19" class="cls-1"/><rect width="176" height="8" x="56" y="472" class="cls-1"/><rect width="55" height="8" x="56" y="492" class="cls-1"/><polygon points="21 417.19 21 405.06 10.5 399 0 405.06 0 417.19 10.5 423.25 21 417.19" class="cls-1"/><rect width="176" height="8" x="56" y="407" class="cls-1"/><rect width="55" height="8" x="56" y="427" class="cls-1"/></svg>