<svg xmlns="http://www.w3.org/2000/svg" xmlns:svg="http://www.w3.org/2000/svg" id="logo-dat-desktop" width="244" height="244" version="1.1" viewBox="0 0 244 244"><metadata id="metadata33"/><defs id="defs4"><style id="style2">.cls-1{fill:none;stroke:#35b44f;stroke-miterlimit:10;stroke-width:3px}.cls-2{fill:#fff}</style></defs><title id="title6">logo-dat-desktop</title><g id="g854" transform="translate(16)"><polygon style="fill:#35b44f;fill-opacity:1;stroke:#35b44f;stroke-width:3px;stroke-miterlimit:10" id="polygon8" points="1.5 62 106 2 210.5 62 210.5 182 106 242 1.5 182" class="cls-1"/><path style="fill:#fff" id="path10" d="m 57.87,86.27 h 11 c 12.66,0 20.19,6.83 20.19,20.5 0,13.67 -7.53,20.88 -19.81,20.88 H 57.87 Z m 10.5,35.44 c 8.35,0 13.16,-4.75 13.16,-14.93 0,-10.18 -4.81,-14.56 -13.16,-14.56 h -3.16 v 29.49 z" class="cls-2"/><path style="fill:#fff" id="path12" d="m 116.93,116.46 h -13.85 l -3.23,11.2 h -7.53 l 13.54,-41.39 h 8.61 l 13.48,41.39 h -7.78 z m -1.65,-5.76 -1.46,-5.06 c -1.27,-4.37 -2.53,-9.11 -3.73,-13.67 h -0.25 c -1.14,4.62 -2.34,9.3 -3.67,13.67 l -1.46,5.06 z" class="cls-2"/><path style="fill:#fff" id="path14" d="m 139,92.48 h -12 v -6.2 h 31.2 v 6.2 h -11.9 v 35.18 H 139 Z" class="cls-2"/><path style="fill:#fff" id="path16" d="m 39,148.88 h 5 c 5.66,0 9,3.06 9,9.17 0,6.11 -3.37,9.34 -8.86,9.34 H 39 Z m 4.7,15.85 c 3.74,0 5.89,-2.12 5.89,-6.68 0,-4.56 -2.15,-6.51 -5.89,-6.51 h -1.37 v 13.19 z" class="cls-2"/><path style="fill:#fff" id="path18" d="m 60.82,148.88 h 11.12 v 2.77 H 64.1 v 4.73 h 6.65 v 2.77 H 64.1 v 5.46 h 8.12 v 2.77 h -11.4 z" class="cls-2"/><path style="fill:#fff" id="path20" d="m 80.88,162.78 a 7.37,7.37 0 0 0 4.84,2.09 c 2.07,0 3.23,-0.93 3.23,-2.38 0,-1.45 -1.19,-2 -2.89,-2.72 l -2.52,-1.1 c -1.84,-0.76 -3.74,-2.21 -3.74,-4.93 0,-2.94 2.61,-5.21 6.2,-5.21 a 8.19,8.19 0 0 1 5.72,2.35 L 90,153 a 6,6 0 0 0 -4,-1.58 c -1.76,0 -2.89,0.82 -2.89,2.18 0,1.36 1.41,2 2.94,2.6 l 2.49,1 c 2.21,0.93 3.74,2.32 3.74,5 0,3 -2.49,5.49 -6.65,5.49 A 9.52,9.52 0 0 1 79,165 Z" class="cls-2"/><path style="fill:#fff" id="path22" d="m 99.8,148.88 h 3.28 v 8.41 h 0.08 l 6.6,-8.41 h 3.62 l -5.69,7.22 6.65,11.29 h -3.62 l -5,-8.72 -2.64,3.33 v 5.41 H 99.8 Z" class="cls-2"/><path style="fill:#fff" id="path24" d="m 125.1,151.66 h -5.35 v -2.77 h 14 v 2.77 h -5.32 v 15.74 h -3.33 z" class="cls-2"/><path style="fill:#fff" id="path26" d="m 139.52,158.05 c 0,-6 3.34,-9.51 8.18,-9.51 4.84,0 8.15,3.54 8.15,9.51 0,5.97 -3.34,9.68 -8.15,9.68 -4.81,0 -8.18,-3.68 -8.18,-9.68 z m 13,0 c 0,-4.13 -1.9,-6.65 -4.78,-6.65 -2.88,0 -4.81,2.52 -4.81,6.65 0,4.13 1.9,6.82 4.81,6.82 2.91,0 4.75,-2.66 4.75,-6.82 z" class="cls-2"/><path style="fill:#fff" id="path28" d="m 163.71,148.88 h 6.23 c 4,0 7,1.42 7,5.72 0,4.1 -3.06,6 -7,6 H 167 v 6.79 h -3.28 z m 5.94,9.09 c 2.77,0 4.08,-1.1 4.08,-3.37 0,-2.27 -1.39,-3.09 -4.08,-3.09 H 167 V 158 Z" class="cls-2"/></g></svg>